STARTFONT 2.3
FONT -FontForge-Fontdiner Swanky-Book-R-Normal--8-80-72-72-P-50-ISO10646-1
SIZE 8 72 72  4
FONTBOUNDINGBOX 12 13 -2 -4
COMMENT "Generated by fontforge, http://fontforge.sourceforge.net"
COMMENT "Copyright (c) 2010 by Font Diner, Inc. All rights reserved."
STARTPROPERTIES 40
FOUNDRY "FontForge"
FAMILY_NAME "Fontdiner Swanky"
WEIGHT_NAME "Book"
SLANT "R"
SETWIDTH_NAME "Normal"
ADD_STYLE_NAME ""
PIXEL_SIZE 8
POINT_SIZE 80
RESOLUTION_X 72
RESOLUTION_Y 72
SPACING "P"
AVERAGE_WIDTH 50
CHARSET_REGISTRY "ISO10646"
CHARSET_ENCODING "1"
FONTNAME_REGISTRY ""
CHARSET_COLLECTIONS "ISO10646-1"
BITS_PER_PIXEL 4
FONT_NAME "FontdinerSwanky-Regular"
FACE_NAME "Fontdiner Swanky Regular"
COPYRIGHT "Copyright (c) 2010 by Font Diner, Inc. All rights reserved."
FONT_VERSION "1.001"
FONT_ASCENT 6
FONT_DESCENT 2
UNDERLINE_POSITION -1
UNDERLINE_THICKNESS 1
X_HEIGHT 4
CAP_HEIGHT 4
RAW_ASCENT 799
RAW_DESCENT 200
NORM_SPACE 3
RELATIVE_WEIGHT 40
RELATIVE_SETWIDTH 50
SUPERSCRIPT_X 0
SUPERSCRIPT_Y 3
SUPERSCRIPT_SIZE 5
SUBSCRIPT_X 0
SUBSCRIPT_Y 1
SUBSCRIPT_SIZE 5
AVG_LOWERCASE_WIDTH 51
AVG_UPPERCASE_WIDTH 61
ENDPROPERTIES
CHARS 231
STARTCHAR space
ENCODING 32
SWIDTH 320 0
DWIDTH 3 0
BBX 1 1 0 0
BITMAP
00
ENDCHAR
STARTCHAR exclam
ENCODING 33
SWIDTH 305 0
DWIDTH 2 0
BBX 3 7 0 0
BITMAP
3B40
4F40
5F10
5D00
6A00
4500
C800
ENDCHAR
STARTCHAR quotedbl
ENCODING 34
SWIDTH 369 0
DWIDTH 3 0
BBX 3 3 0 3
BITMAP
4340
D9C0
9590
ENDCHAR
STARTCHAR numbersign
ENCODING 35
SWIDTH 702 0
DWIDTH 6 0
BBX 6 6 0 0
BITMAP
043230
4C9A92
7DACA4
3C5B71
9EAEC3
0A0A20
ENDCHAR
STARTCHAR dollar
ENCODING 36
SWIDTH 545 0
DWIDTH 4 0
BBX 5 7 0 -1
BITMAP
076000
4CC700
D61B00
6FD700
827F30
9CBB10
05A000
ENDCHAR
STARTCHAR percent
ENCODING 37
SWIDTH 657 0
DWIDTH 5 0
BBX 6 8 0 -1
BITMAP
000100
8B3B60
C98E10
148800
00E210
05ABB4
0B4BB3
040000
ENDCHAR
STARTCHAR ampersand
ENCODING 38
SWIDTH 668 0
DWIDTH 5 0
BBX 7 7 0 -1
BITMAP
1BA70000
4C3B0000
0CD31000
4CE68000
A94FA510
5ECCD400
00061000
ENDCHAR
STARTCHAR quotesingle
ENCODING 39
SWIDTH 177 0
DWIDTH 1 0
BBX 2 3 0 3
BITMAP
52
D4
92
ENDCHAR
STARTCHAR parenleft
ENCODING 40
SWIDTH 384 0
DWIDTH 3 0
BBX 3 8 0 -1
BITMAP
0150
1C30
5C00
8900
8900
6C00
1E20
0380
ENDCHAR
STARTCHAR parenright
ENCODING 41
SWIDTH 375 0
DWIDTH 3 0
BBX 3 8 0 -1
BITMAP
5100
2C10
0A70
0890
08A0
0A80
1E20
7400
ENDCHAR
STARTCHAR asterisk
ENCODING 42
SWIDTH 640 0
DWIDTH 5 0
BBX 6 5 0 0
BITMAP
1D3C20
49DB20
DEFDE1
1BCC10
1A2810
ENDCHAR
STARTCHAR plus
ENCODING 43
SWIDTH 607 0
DWIDTH 5 0
BBX 5 5 0 0
BITMAP
03F100
57F430
CDFC90
02E000
019000
ENDCHAR
STARTCHAR comma
ENCODING 44
SWIDTH 226 0
DWIDTH 2 0
BBX 2 3 0 -2
BITMAP
64
AA
32
ENDCHAR
STARTCHAR hyphen
ENCODING 45
SWIDTH 549 0
DWIDTH 4 0
BBX 4 2 0 2
BITMAP
3654
7DDB
ENDCHAR
STARTCHAR period
ENCODING 46
SWIDTH 226 0
DWIDTH 2 0
BBX 2 2 0 -1
BITMAP
75
86
ENDCHAR
STARTCHAR slash
ENCODING 47
SWIDTH 600 0
DWIDTH 5 0
BBX 6 8 -1 -1
BITMAP
00007A
0002E8
000AD1
003F50
00CA00
06E200
1E7000
060000
ENDCHAR
STARTCHAR zero
ENCODING 48
SWIDTH 740 0
DWIDTH 6 0
BBX 6 5 0 0
BITMAP
1ADCA1
9C00D8
C8009B
8C01D7
19CC80
ENDCHAR
STARTCHAR one
ENCODING 49
SWIDTH 503 0
DWIDTH 4 0
BBX 6 7 -1 -1
BITMAP
148A00
02AE00
007D00
006D00
006C00
019E30
034441
ENDCHAR
STARTCHAR two
ENCODING 50
SWIDTH 638 0
DWIDTH 5 0
BBX 5 7 0 -1
BITMAP
75A910
8B29B0
6108B0
12AB40
4D4090
EECDA0
223320
ENDCHAR
STARTCHAR three
ENCODING 51
SWIDTH 620 0
DWIDTH 5 0
BBX 5 7 0 -1
BITMAP
669500
A94D70
400B80
04CF60
700BB0
BB8E60
225200
ENDCHAR
STARTCHAR four
ENCODING 52
SWIDTH 606 0
DWIDTH 5 0
BBX 6 7 -1 -1
BITMAP
000180
000BA0
008EA0
06A996
1AACD9
000893
005882
ENDCHAR
STARTCHAR five
ENCODING 53
SWIDTH 610 0
DWIDTH 5 0
BBX 5 7 0 -1
BITMAP
579B70
D95560
ACB720
433E70
500D80
ADDE20
113100
ENDCHAR
STARTCHAR six
ENCODING 54
SWIDTH 619 0
DWIDTH 5 0
BBX 5 8 0 -1
BITMAP
000010
048640
4F8B60
BD9840
EB1AB0
E605D0
9B3B90
058500
ENDCHAR
STARTCHAR seven
ENCODING 55
SWIDTH 598 0
DWIDTH 5 0
BBX 6 7 0 -1
BITMAP
9A9881
964DC0
411F60
004E10
008900
03D700
155630
ENDCHAR
STARTCHAR eight
ENCODING 56
SWIDTH 642 0
DWIDTH 5 0
BBX 6 7 0 -1
BITMAP
069710
6D2B90
8C09B0
5FCF80
EA07F2
CB19E1
18B920
ENDCHAR
STARTCHAR nine
ENCODING 57
SWIDTH 610 0
DWIDTH 5 0
BBX 5 7 0 -1
BITMAP
18A600
B91B70
E608C0
9D7EC0
456D90
6DBE20
434100
ENDCHAR
STARTCHAR colon
ENCODING 58
SWIDTH 223 0
DWIDTH 2 0
BBX 2 4 0 -1
BITMAP
85
85
84
95
ENDCHAR
STARTCHAR semicolon
ENCODING 59
SWIDTH 228 0
DWIDTH 2 0
BBX 2 5 0 -2
BITMAP
85
75
74
B8
41
ENDCHAR
STARTCHAR less
ENCODING 60
SWIDTH 563 0
DWIDTH 5 0
BBX 5 6 0 0
BITMAP
000010
003B90
19FC40
8F7000
04C500
000840
ENDCHAR
STARTCHAR equal
ENCODING 61
SWIDTH 531 0
DWIDTH 4 0
BBX 5 4 0 0
BITMAP
AA9810
998810
DEFF30
234510
ENDCHAR
STARTCHAR greater
ENCODING 62
SWIDTH 576 0
DWIDTH 5 0
BBX 5 6 0 0
BITMAP
100000
C91000
6DE700
00AF50
07B200
760000
ENDCHAR
STARTCHAR question
ENCODING 63
SWIDTH 592 0
DWIDTH 5 0
BBX 5 8 0 -1
BITMAP
644100
957E30
100A90
056E60
0F8400
180000
BC0000
120000
ENDCHAR
STARTCHAR at
ENCODING 64
SWIDTH 792 0
DWIDTH 6 0
BBX 7 7 0 -1
BITMAP
00352000
2C878900
C5C79A50
F1A8B780
C6D7A950
3C64B800
00341000
ENDCHAR
STARTCHAR A
ENCODING 65
SWIDTH 788 0
DWIDTH 6 0
BBX 9 8 -1 -2
BITMAP
0154200000
002BD00000
000BF60000
00579D0000
00CCBF5000
18800AD000
578205FA30
0000076200
ENDCHAR
STARTCHAR B
ENCODING 66
SWIDTH 774 0
DWIDTH 6 0
BBX 8 7 -1 -1
BITMAP
34443100
08FA9D90
02F404F2
01FCCE60
00F73CA0
00D74DB0
18BA8500
ENDCHAR
STARTCHAR C
ENCODING 67
SWIDTH 766 0
DWIDTH 6 0
BBX 6 7 0 -1
BITMAP
015735
2EB6BC
AD0007
CA0000
9D0004
1DB69A
005641
ENDCHAR
STARTCHAR D
ENCODING 68
SWIDTH 833 0
DWIDTH 7 0
BBX 8 7 -1 -1
BITMAP
25555300
03CE7BB1
009D00D8
008C00B9
007B00E6
02BDAC90
03321000
ENDCHAR
STARTCHAR E
ENCODING 69
SWIDTH 781 0
DWIDTH 6 0
BBX 7 7 -1 -1
BITMAP
26789AA0
02DB11B0
00BA4340
00BEE220
00A96270
03CC88A0
13332220
ENDCHAR
STARTCHAR F
ENCODING 70
SWIDTH 731 0
DWIDTH 6 0
BBX 7 7 -1 -1
BITMAP
15689A70
02DA2390
00C96050
00CEE010
00B88000
01C91000
06775000
ENDCHAR
STARTCHAR G
ENCODING 71
SWIDTH 828 0
DWIDTH 7 0
BBX 7 7 0 -1
BITMAP
01675800
2EB6AC00
AD000700
CB049A60
9E105E00
1CC7CC00
00341000
ENDCHAR
STARTCHAR H
ENCODING 72
SWIDTH 797 0
DWIDTH 6 0
BBX 8 7 -1 -1
BITMAP
00016993
2AF81C90
03F30C80
03FA9E80
02F52B70
02F24DB3
27A72000
ENDCHAR
STARTCHAR I
ENCODING 73
SWIDTH 445 0
DWIDTH 4 0
BBX 5 7 -1 -1
BITMAP
277750
01DA00
00C900
00B800
00B800
00A700
05AA40
ENDCHAR
STARTCHAR J
ENCODING 74
SWIDTH 718 0
DWIDTH 6 0
BBX 8 7 -1 -1
BITMAP
00257971
0013AC00
00006E00
00004F10
37723F10
07906D00
01AAC400
ENDCHAR
STARTCHAR K
ENCODING 75
SWIDTH 934 0
DWIDTH 7 0
BBX 10 7 -1 -1
BITMAP
16BB556640
00DA05C500
00CBBA0000
00BC5E2000
00A808C100
05DC61CA00
0000049A83
ENDCHAR
STARTCHAR L
ENCODING 76
SWIDTH 712 0
DWIDTH 6 0
BBX 7 7 -1 0
BITMAP
14444100
03DD2000
00BB0000
00AB0010
009A0070
009A03A0
16CCBA70
ENDCHAR
STARTCHAR M
ENCODING 77
SWIDTH 1033 0
DWIDTH 8 0
BBX 10 7 -1 -1
BITMAP
17A9003C93
00CF40CF40
00BDC5CF30
00A6FD6F20
0093A84F20
02B8329F72
1333310000
ENDCHAR
STARTCHAR N
ENCODING 78
SWIDTH 840 0
DWIDTH 7 0
BBX 9 7 -1 -1
BITMAP
18A839C810
00CF70C000
00C9F5B000
00C1BEC000
00C11CC000
28EB63A000
0000001000
ENDCHAR
STARTCHAR O
ENCODING 79
SWIDTH 808 0
DWIDTH 6 0
BBX 7 6 0 -1
BITMAP
08CCB300
9E208E10
CA003F40
9D007E20
1ADBC400
00010000
ENDCHAR
STARTCHAR P
ENCODING 80
SWIDTH 746 0
DWIDTH 6 0
BBX 7 7 -1 -1
BITMAP
12110000
16ECBB60
00D703E0
00DD9820
00C90000
04EC3000
14333100
ENDCHAR
STARTCHAR Q
ENCODING 81
SWIDTH 789 0
DWIDTH 6 0
BBX 7 9 0 -3
BITMAP
00120000
1BCAD400
8D008E00
AA005F10
6E21BB00
06BEA100
0009C420
002CB720
00310000
ENDCHAR
STARTCHAR R
ENCODING 82
SWIDTH 826 0
DWIDTH 7 0
BBX 10 8 -1 -2
BITMAP
1221100000
05ECAB8000
00C803E100
00BDBD2000
00BA1E5000
04DD47E200
133321EE82
0000056100
ENDCHAR
STARTCHAR S
ENCODING 83
SWIDTH 661 0
DWIDTH 5 0
BBX 6 7 0 -1
BITMAP
023111
8C7AD0
DB5160
4CFF80
4019F2
7B7BB0
303200
ENDCHAR
STARTCHAR T
ENCODING 84
SWIDTH 754 0
DWIDTH 6 0
BBX 6 7 0 -1
BITMAP
455553
97DC79
60BA06
10B901
00A900
05DC40
022220
ENDCHAR
STARTCHAR U
ENCODING 85
SWIDTH 725 0
DWIDTH 6 0
BBX 8 7 -1 -1
BITMAP
11002431
08F60980
05F10750
06F10740
05F30830
00CDAA00
00022000
ENDCHAR
STARTCHAR V
ENCODING 86
SWIDTH 786 0
DWIDTH 6 0
BBX 8 7 -1 -1
BITMAP
02561310
39F305D6
00D90740
006E2A00
000DD400
0006B000
00013000
ENDCHAR
STARTCHAR W
ENCODING 87
SWIDTH 1026 0
DWIDTH 8 0
BBX 10 7 -1 -1
BITMAP
0012102100
4BF60617C5
02F64F2560
00ABBEAA10
004FD6F900
000C60D400
0004004000
ENDCHAR
STARTCHAR X
ENCODING 88
SWIDTH 860 0
DWIDTH 7 0
BBX 9 6 -1 -1
BITMAP
05AB468500
003F6B4000
0008F60000
005BAE2000
29E41EC300
0000355410
ENDCHAR
STARTCHAR Y
ENCODING 89
SWIDTH 848 0
DWIDTH 7 0
BBX 8 7 -1 -1
BITMAP
11230000
38F905A6
005F4750
0007E600
0001F200
0002F400
00178840
ENDCHAR
STARTCHAR Z
ENCODING 90
SWIDTH 685 0
DWIDTH 5 0
BBX 6 5 0 0
BITMAP
9BBCD5
812EA0
21DC12
0CE255
7DCBC4
ENDCHAR
STARTCHAR bracketleft
ENCODING 91
SWIDTH 380 0
DWIDTH 3 0
BBX 4 8 0 -1
BITMAP
4871
7D10
7B00
7B00
6B00
6B00
5A00
5E70
ENDCHAR
STARTCHAR backslash
ENCODING 92
SWIDTH 680 0
DWIDTH 5 0
BBX 6 8 0 -1
BITMAP
890000
6F3000
0CB000
03F500
009D10
001E70
0005E2
000061
ENDCHAR
STARTCHAR bracketright
ENCODING 93
SWIDTH 371 0
DWIDTH 3 0
BBX 4 8 -1 -1
BITMAP
1785
01B9
0099
0098
0098
0098
0087
06D6
ENDCHAR
STARTCHAR asciicircum
ENCODING 94
SWIDTH 671 0
DWIDTH 5 0
BBX 6 5 0 2
BITMAP
00A100
06F900
1E9C40
9F22C0
870032
ENDCHAR
STARTCHAR underscore
ENCODING 95
SWIDTH 840 0
DWIDTH 7 0
BBX 7 2 0 -1
BITMAP
88899960
BCCCDD90
ENDCHAR
STARTCHAR grave
ENCODING 96
SWIDTH 707 0
DWIDTH 6 0
BBX 2 3 2 4
BITMAP
34
4C
03
ENDCHAR
STARTCHAR a
ENCODING 97
SWIDTH 572 0
DWIDTH 5 0
BBX 5 6 0 -1
BITMAP
046200
7B4E10
495F30
B94F10
5ABF40
001220
ENDCHAR
STARTCHAR b
ENCODING 98
SWIDTH 723 0
DWIDTH 6 0
BBX 7 8 -1 -2
BITMAP
4BD50000
02F40000
01F40000
01F76400
00F75E80
00F20C90
05FAB910
03200000
ENDCHAR
STARTCHAR c
ENCODING 99
SWIDTH 589 0
DWIDTH 5 0
BBX 5 5 0 -1
BITMAP
19BB20
8B0A60
AA0010
5E7850
037400
ENDCHAR
STARTCHAR d
ENCODING 100
SWIDTH 713 0
DWIDTH 6 0
BBX 7 9 0 -2
BITMAP
00132100
0003E900
0000D700
0010E500
2DBBF300
9A00F100
7C11E000
06ABE410
00014100
ENDCHAR
STARTCHAR e
ENCODING 101
SWIDTH 593 0
DWIDTH 5 0
BBX 5 5 0 -1
BITMAP
06A600
7C2C60
ADAB80
6D5510
047300
ENDCHAR
STARTCHAR f
ENCODING 102
SWIDTH 507 0
DWIDTH 4 0
BBX 6 12 -1 -4
BITMAP
001980
009797
00D532
00D600
09EDA0
009900
007B00
006D00
004E00
493E00
2CB700
012000
ENDCHAR
STARTCHAR g
ENCODING 103
SWIDTH 606 0
DWIDTH 5 0
BBX 6 9 0 -4
BITMAP
0009E2
2B9D71
A70980
A70A80
3E9A10
6FB820
A928D0
E503F1
4BAB60
ENDCHAR
STARTCHAR h
ENCODING 104
SWIDTH 678 0
DWIDTH 5 0
BBX 7 8 -1 -1
BITMAP
49B40000
03F40000
02F30000
01F53000
01F89C00
00F11F20
05F50F10
01005850
ENDCHAR
STARTCHAR i
ENCODING 105
SWIDTH 393 0
DWIDTH 3 0
BBX 4 7 0 0
BITMAP
0310
0E90
2530
3D90
0B70
0A60
4DB1
ENDCHAR
STARTCHAR j
ENCODING 106
SWIDTH 385 0
DWIDTH 3 0
BBX 4 9 -1 -3
BITMAP
04C1
04A1
06C5
00B7
0099
008A
116B
796A
1992
ENDCHAR
STARTCHAR k
ENCODING 107
SWIDTH 749 0
DWIDTH 6 0
BBX 8 8 -1 -1
BITMAP
25620000
04F52221
02F57E71
01F7B200
00FBE200
00E37A00
06E92C71
01003852
ENDCHAR
STARTCHAR l
ENCODING 108
SWIDTH 369 0
DWIDTH 3 0
BBX 5 8 -1 -1
BITMAP
39D400
01F400
01F400
00F300
00E300
00E200
00E300
068710
ENDCHAR
STARTCHAR m
ENCODING 109
SWIDTH 990 0
DWIDTH 8 0
BBX 10 5 -1 0
BITMAP
0142301200
28FCCDCE50
00E23E0970
03E52C1B90
0112673121
ENDCHAR
STARTCHAR n
ENCODING 110
SWIDTH 643 0
DWIDTH 5 0
BBX 7 5 -1 0
BITMAP
01423000
28FCCB00
00E23E00
03E42C00
01126720
ENDCHAR
STARTCHAR o
ENCODING 111
SWIDTH 705 0
DWIDTH 6 0
BBX 6 4 0 0
BITMAP
19AA60
C901D6
C700C7
3C9B91
ENDCHAR
STARTCHAR p
ENCODING 112
SWIDTH 723 0
DWIDTH 6 0
BBX 7 7 -1 -2
BITMAP
24620000
16FBA910
01F40A90
00F40A90
00EBB910
00D40000
17DA3000
ENDCHAR
STARTCHAR q
ENCODING 113
SWIDTH 682 0
DWIDTH 5 0
BBX 7 7 0 -2
BITMAP
00038710
4CACD100
D607C000
B919B000
189BA000
0007A000
004AA500
ENDCHAR
STARTCHAR r
ENCODING 114
SWIDTH 595 0
DWIDTH 5 0
BBX 6 6 -1 -1
BITMAP
158887
03DC8C
00A800
009700
05DC60
010000
ENDCHAR
STARTCHAR s
ENCODING 115
SWIDTH 533 0
DWIDTH 4 0
BBX 5 5 0 0
BITMAP
298500
B62C00
6FC700
737F30
9BAB10
ENDCHAR
STARTCHAR t
ENCODING 116
SWIDTH 422 0
DWIDTH 3 0
BBX 4 9 0 -1
BITMAP
0110
0830
5E41
9F96
5E00
6C00
7B03
4EC2
0220
ENDCHAR
STARTCHAR u
ENCODING 117
SWIDTH 614 0
DWIDTH 5 0
BBX 7 5 -1 -1
BITMAP
2BB3A900
07A07900
07A08700
02DAD910
00013300
ENDCHAR
STARTCHAR v
ENCODING 118
SWIDTH 639 0
DWIDTH 5 0
BBX 7 6 -1 -1
BITMAP
01330000
4CD28940
02F47500
008CB000
001E5000
00040000
ENDCHAR
STARTCHAR w
ENCODING 119
SWIDTH 805 0
DWIDTH 6 0
BBX 9 5 -1 0
BITMAP
3563124410
09E0A0C300
01E9F89000
008E7F2000
0018190000
ENDCHAR
STARTCHAR x
ENCODING 120
SWIDTH 717 0
DWIDTH 6 0
BBX 8 6 -1 -1
BITMAP
02451000
25E87C61
004FB200
004CE200
16A69C61
00014200
ENDCHAR
STARTCHAR y
ENCODING 121
SWIDTH 655 0
DWIDTH 5 0
BBX 6 9 -1 -4
BITMAP
110000
0AA4BB
08D06E
0AC06E
03BCCD
00007C
05408B
0883D5
006840
ENDCHAR
STARTCHAR z
ENCODING 122
SWIDTH 549 0
DWIDTH 4 0
BBX 5 6 0 -1
BITMAP
122220
C9BF30
62E700
1CB330
8ECC40
000210
ENDCHAR
STARTCHAR braceleft
ENCODING 123
SWIDTH 708 0
DWIDTH 6 0
BBX 5 8 0 -1
BITMAP
008850
00F600
00F400
01E400
18F300
00D300
00D300
00CB30
ENDCHAR
STARTCHAR bar
ENCODING 124
SWIDTH 304 0
DWIDTH 2 0
BBX 2 8 0 -1
BITMAP
49
6D
6D
6D
6C
6C
5C
37
ENDCHAR
STARTCHAR braceright
ENCODING 125
SWIDTH 517 0
DWIDTH 4 0
BBX 5 8 0 -1
BITMAP
488000
06F000
03F000
03F100
03F810
03E000
02D000
3AC000
ENDCHAR
STARTCHAR asciitilde
ENCODING 126
SWIDTH 466 0
DWIDTH 4 0
BBX 4 3 0 1
BITMAP
2202
EEEB
1031
ENDCHAR
STARTCHAR uni00A0
ENCODING 160
SWIDTH 320 0
DWIDTH 3 0
BBX 1 1 0 0
BITMAP
00
ENDCHAR
STARTCHAR exclamdown
ENCODING 161
SWIDTH 305 0
DWIDTH 2 0
BBX 3 8 0 -3
BITMAP
0410
0C40
1B00
3E00
6D00
9C00
CC00
5500
ENDCHAR
STARTCHAR cent
ENCODING 162
SWIDTH 417 0
DWIDTH 3 0
BBX 5 7 -1 -1
BITMAP
008400
01C800
0C3940
1E0000
0C6530
01C700
009400
ENDCHAR
STARTCHAR sterling
ENCODING 163
SWIDTH 658 0
DWIDTH 5 0
BBX 6 7 0 -1
BITMAP
003211
0BBBD1
7F7490
8CA611
AEDA24
1EBAC3
134451
ENDCHAR
STARTCHAR currency
ENCODING 164
SWIDTH 358 0
DWIDTH 3 0
BBX 3 4 0 1
BITMAP
2010
BCA0
9B80
4240
ENDCHAR
STARTCHAR yen
ENCODING 165
SWIDTH 796 0
DWIDTH 6 0
BBX 8 6 -1 0
BITMAP
01320000
39E12A71
007C6600
005DC300
006CD600
004BB510
ENDCHAR
STARTCHAR brokenbar
ENCODING 166
SWIDTH 304 0
DWIDTH 2 0
BBX 2 8 0 -1
BITMAP
49
6D
6D
12
35
6C
5C
37
ENDCHAR
STARTCHAR section
ENCODING 167
SWIDTH 646 0
DWIDTH 5 0
BBX 5 9 0 -2
BITMAP
2BA840
980470
6FA410
4CCF70
9908C0
4FDD50
239F90
8607C0
67BA30
ENDCHAR
STARTCHAR dieresis
ENCODING 168
SWIDTH 708 0
DWIDTH 6 0
BBX 3 2 1 6
BITMAP
2460
1340
ENDCHAR
STARTCHAR copyright
ENCODING 169
SWIDTH 700 0
DWIDTH 6 0
BBX 6 6 0 0
BITMAP
025400
6B88B1
C56767
C75258
8886B2
059820
ENDCHAR
STARTCHAR ordfeminine
ENCODING 170
SWIDTH 399 0
DWIDTH 3 0
BBX 4 4 0 3
BITMAP
2410
C6A0
C9B0
8AB1
ENDCHAR
STARTCHAR guillemotleft
ENCODING 171
SWIDTH 424 0
DWIDTH 3 0
BBX 4 4 0 0
BITMAP
0753
98C0
B8C0
1973
ENDCHAR
STARTCHAR logicalnot
ENCODING 172
SWIDTH 541 0
DWIDTH 4 0
BBX 5 5 0 0
BITMAP
100010
966730
BBAE20
200910
000630
ENDCHAR
STARTCHAR sfthyphen
ENCODING 173
SWIDTH 530 0
DWIDTH 4 0
BBX 5 2 0 2
BITMAP
765510
DDDC20
ENDCHAR
STARTCHAR registered
ENCODING 174
SWIDTH 700 0
DWIDTH 6 0
BBX 6 6 0 0
BITMAP
014300
5B66B1
C3DA87
C09058
8764B3
069920
ENDCHAR
STARTCHAR macron
ENCODING 175
SWIDTH 705 0
DWIDTH 6 0
BBX 3 2 2 5
BITMAP
CD30
3310
ENDCHAR
STARTCHAR degree
ENCODING 176
SWIDTH 364 0
DWIDTH 3 0
BBX 3 3 0 3
BITMAP
3A20
8970
1500
ENDCHAR
STARTCHAR plusminus
ENCODING 177
SWIDTH 607 0
DWIDTH 5 0
BBX 5 6 0 0
BITMAP
001000
03F100
CFFD90
35E320
46A320
AEDD70
ENDCHAR
STARTCHAR twosuperior
ENCODING 178
SWIDTH 440 0
DWIDTH 4 0
BBX 4 4 0 3
BITMAP
8BC2
61B5
4B74
DDD4
ENDCHAR
STARTCHAR threesuperior
ENCODING 179
SWIDTH 442 0
DWIDTH 4 0
BBX 4 5 0 2
BITMAP
7A91
62B4
27E4
A8D4
2320
ENDCHAR
STARTCHAR acute
ENCODING 180
SWIDTH 694 0
DWIDTH 6 0
BBX 2 2 2 6
BITMAP
37
86
ENDCHAR
STARTCHAR mu
ENCODING 181
SWIDTH 1000 0
DWIDTH 8 0
BBX 6 7 0 -3
BITMAP
4D75B6
0B60C5
0B60C3
0BDBE5
0B5142
0A5000
010000
ENDCHAR
STARTCHAR paragraph
ENCODING 182
SWIDTH 782 0
DWIDTH 6 0
BBX 8 7 -1 -1
BITMAP
00123441
0ABCBD30
1E496C00
016CCB00
00096B00
001BDE60
01433210
ENDCHAR
STARTCHAR periodcentered
ENCODING 183
SWIDTH 226 0
DWIDTH 2 0
BBX 2 2 0 2
BITMAP
86
75
ENDCHAR
STARTCHAR cedilla
ENCODING 184
SWIDTH 780 0
DWIDTH 6 0
BBX 2 3 2 -2
BITMAP
77
5C
45
ENDCHAR
STARTCHAR onesuperior
ENCODING 185
SWIDTH 390 0
DWIDTH 3 0
BBX 3 5 0 2
BITMAP
5B50
0B50
0A50
1C60
1330
ENDCHAR
STARTCHAR ordmasculine
ENCODING 186
SWIDTH 449 0
DWIDTH 4 0
BBX 5 4 -1 3
BITMAP
001100
0B8B50
1E1790
048710
ENDCHAR
STARTCHAR guillemotright
ENCODING 187
SWIDTH 415 0
DWIDTH 3 0
BBX 4 4 0 0
BITMAP
8440
87D1
69D2
A560
ENDCHAR
STARTCHAR onequarter
ENCODING 188
SWIDTH 918 0
DWIDTH 7 0
BBX 7 8 0 -1
BITMAP
5B500860
0B502E20
0A50B700
1C65C250
133D4C60
0079ADB0
02D37BC0
08503970
ENDCHAR
STARTCHAR onehalf
ENCODING 189
SWIDTH 1007 0
DWIDTH 8 0
BBX 8 9 0 -2
BITMAP
5B500860
0B502E20
0A50B700
1C65C000
133D4BC8
0079073D
02D108A8
08505FBC
00000111
ENDCHAR
STARTCHAR threequarters
ENCODING 190
SWIDTH 936 0
DWIDTH 8 0
BBX 8 8 0 -1
BITMAP
7A910680
62B41E30
27E49900
A8D6D160
232B5A80
005B8DB3
01D37AC2
06703881
ENDCHAR
STARTCHAR questiondown
ENCODING 191
SWIDTH 568 0
DWIDTH 5 0
BBX 5 8 0 -3
BITMAP
001920
001A30
006900
4BD800
E70000
E60040
4BAB40
000110
ENDCHAR
STARTCHAR Agrave
ENCODING 192
SWIDTH 788 0
DWIDTH 6 0
BBX 9 10 -1 -2
BITMAP
0006200000
0009700000
0155400000
002BD00000
000BF60000
00579D0000
00CCBF5000
18800AD000
578205FA30
0000076200
ENDCHAR
STARTCHAR Aacute
ENCODING 193
SWIDTH 788 0
DWIDTH 6 0
BBX 9 10 -1 -2
BITMAP
0001900000
0004A00000
0154200000
002BD00000
000BF60000
00579D0000
00CCBF5000
18800AD000
578205FA30
0000076200
ENDCHAR
STARTCHAR Acircumflex
ENCODING 194
SWIDTH 788 0
DWIDTH 6 0
BBX 9 10 -1 -2
BITMAP
0001300000
000AD10000
0158430000
002BD00000
000BF60000
00579D0000
00CCBF5000
18800AD000
578205FA30
0000076200
ENDCHAR
STARTCHAR Atilde
ENCODING 195
SWIDTH 788 0
DWIDTH 6 0
BBX 9 9 -1 -2
BITMAP
000DC60000
0155510000
002BD00000
000BF60000
00579D0000
00CCBF5000
18800AD000
578205FA30
0000076200
ENDCHAR
STARTCHAR Adieresis
ENCODING 196
SWIDTH 788 0
DWIDTH 6 0
BBX 9 9 -1 -2
BITMAP
0006420000
0158510000
002BD00000
000BF60000
00579D0000
00CCBF5000
18800AD000
578205FA30
0000076200
ENDCHAR
STARTCHAR Aring
ENCODING 197
SWIDTH 788 0
DWIDTH 6 0
BBX 9 9 -1 -2
BITMAP
0005800000
014AA00000
002BD00000
000BF60000
00579D0000
00CCBF5000
18800AD000
578205FA30
0000076200
ENDCHAR
STARTCHAR AE
ENCODING 198
SWIDTH 1019 0
DWIDTH 8 0
BBX 10 7 -2 -1
BITMAP
0017899AB9
0002EEC11A
0004A9C334
000B29EE32
007CBDB536
16C03BD889
3575333221
ENDCHAR
STARTCHAR Ccedilla
ENCODING 199
SWIDTH 766 0
DWIDTH 6 0
BBX 6 9 0 -3
BITMAP
015735
2EB6BC
AD0007
CA0000
9D0004
2DB69A
019941
005B00
007800
ENDCHAR
STARTCHAR Egrave
ENCODING 200
SWIDTH 781 0
DWIDTH 6 0
BBX 7 10 -1 -1
BITMAP
00043000
0007A000
00002000
26789AA0
02DB11B0
00BA4340
00BEE220
00A96270
03CC88A0
13332220
ENDCHAR
STARTCHAR Eacute
ENCODING 201
SWIDTH 781 0
DWIDTH 6 0
BBX 7 9 -1 -1
BITMAP
00009100
0002C000
26789AA0
02DB11B0
00BA4340
00BEE220
00A96270
03CC88A0
13332220
ENDCHAR
STARTCHAR Ecircumflex
ENCODING 202
SWIDTH 781 0
DWIDTH 6 0
BBX 7 10 -1 -1
BITMAP
00012000
000BC100
00233200
26789AA0
02DB11B0
00BA4340
00BEE220
00A96270
03CC88A0
13332220
ENDCHAR
STARTCHAR Edieresis
ENCODING 203
SWIDTH 781 0
DWIDTH 6 0
BBX 7 9 -1 -1
BITMAP
00064200
00043100
26789AA0
02DB11B0
00BA4340
00BEE220
00A96270
03CC88A0
13332220
ENDCHAR
STARTCHAR Igrave
ENCODING 204
SWIDTH 445 0
DWIDTH 4 0
BBX 5 10 -1 -1
BITMAP
007000
00C400
002100
277750
01DA00
00C900
00B800
00B800
00A700
05AA40
ENDCHAR
STARTCHAR Iacute
ENCODING 205
SWIDTH 445 0
DWIDTH 4 0
BBX 5 9 -1 -1
BITMAP
002800
006800
277850
01DA00
00C900
00B800
00B800
00A700
05AA40
ENDCHAR
STARTCHAR Icircumflex
ENCODING 206
SWIDTH 445 0
DWIDTH 4 0
BBX 5 10 -1 -1
BITMAP
002100
01CB00
032410
277750
01DA00
00C900
00B800
00B800
00A700
05AA40
ENDCHAR
STARTCHAR Idieresis
ENCODING 207
SWIDTH 445 0
DWIDTH 4 0
BBX 5 9 -1 -1
BITMAP
024600
013400
277750
01DA00
00C900
00B800
00B800
00A700
05AA40
ENDCHAR
STARTCHAR Eth
ENCODING 208
SWIDTH 1000 0
DWIDTH 8 0
BBX 8 7 0 -1
BITMAP
35555300
04DE7BB1
00AC00D8
3EFEC1BA
008A00E6
02CDAC90
03321000
ENDCHAR
STARTCHAR Ntilde
ENCODING 209
SWIDTH 840 0
DWIDTH 7 0
BBX 9 9 -1 -1
BITMAP
000BC80000
0001210000
18A839C810
00CF70C000
00C9F5B000
00C1BEC000
00C11CC000
28EB63A000
0000001000
ENDCHAR
STARTCHAR Ograve
ENCODING 210
SWIDTH 808 0
DWIDTH 6 0
BBX 7 9 0 -1
BITMAP
00250000
002E0000
00030000
08CCB300
9E208E10
CA003F40
9D007E20
1ADBC400
00010000
ENDCHAR
STARTCHAR Oacute
ENCODING 211
SWIDTH 808 0
DWIDTH 6 0
BBX 7 9 0 -1
BITMAP
00082000
001D0000
00000000
08CCB300
9E208E10
CA003F40
9D007E20
1ADBC400
00010000
ENDCHAR
STARTCHAR Ocircumflex
ENCODING 212
SWIDTH 808 0
DWIDTH 6 0
BBX 7 9 0 -1
BITMAP
00030000
008E2000
00514000
08CCB300
9E208E10
CA003F40
9D007E20
1ADBC400
00010000
ENDCHAR
STARTCHAR Otilde
ENCODING 213
SWIDTH 808 0
DWIDTH 6 0
BBX 7 8 0 -1
BITMAP
00BC8000
00121000
08CCB300
9E208E10
CA003F40
9D007E20
1ADBC400
00010000
ENDCHAR
STARTCHAR Odieresis
ENCODING 214
SWIDTH 808 0
DWIDTH 6 0
BBX 7 8 0 -1
BITMAP
00633000
00422000
08CCB300
9E208E10
CA003F40
9D007E20
1ADBC400
00010000
ENDCHAR
STARTCHAR multiply
ENCODING 215
SWIDTH 556 0
DWIDTH 4 0
BBX 5 5 0 0
BITMAP
571900
7FDD20
1DF600
9B6E20
200200
ENDCHAR
STARTCHAR Oslash
ENCODING 216
SWIDTH 808 0
DWIDTH 6 0
BBX 7 7 0 -1
BITMAP
00007300
08CDF600
8E2BDE10
CA4D4F40
9DC57E20
1BFBC400
09210000
ENDCHAR
STARTCHAR Ugrave
ENCODING 217
SWIDTH 725 0
DWIDTH 6 0
BBX 8 9 -1 -1
BITMAP
00053000
00088000
11014431
08F60980
05F10750
06F10740
05F30830
00CDAA00
00022000
ENDCHAR
STARTCHAR Uacute
ENCODING 218
SWIDTH 725 0
DWIDTH 6 0
BBX 8 9 -1 -1
BITMAP
00027000
00077000
11002431
08F60980
05F10750
06F10740
05F30830
00CDAA00
00022000
ENDCHAR
STARTCHAR Ucircumflex
ENCODING 219
SWIDTH 725 0
DWIDTH 6 0
BBX 8 9 -1 -1
BITMAP
00012000
000BC100
11235631
08F60980
05F10750
06F10740
05F30830
00CDAA00
00022000
ENDCHAR
STARTCHAR Udieresis
ENCODING 220
SWIDTH 725 0
DWIDTH 6 0
BBX 8 8 -1 -1
BITMAP
00064200
11045531
08F60980
05F10750
06F10740
05F30830
00CDAA00
00022000
ENDCHAR
STARTCHAR Yacute
ENCODING 221
SWIDTH 848 0
DWIDTH 7 0
BBX 8 9 -1 -1
BITMAP
00003700
00007700
11230000
38F905A6
005F4750
0007E600
0001F200
0002F400
00178840
ENDCHAR
STARTCHAR Thorn
ENCODING 222
SWIDTH 745 0
DWIDTH 6 0
BBX 7 7 -1 -1
BITMAP
12110000
16EB4000
00DCAB60
00D604E0
00CD9820
04EC3000
14333100
ENDCHAR
STARTCHAR germandbls
ENCODING 223
SWIDTH 986 0
DWIDTH 8 0
BBX 9 12 -1 -4
BITMAP
0003620000
003C5B4000
00A604B000
00C606A000
09E71D4000
00993F1000
007B1DD610
005D157EC0
003F2E8AB0
493E113300
2CB7000000
0120000000
ENDCHAR
STARTCHAR agrave
ENCODING 224
SWIDTH 572 0
DWIDTH 5 0
BBX 5 8 0 -1
BITMAP
005300
008800
047400
7B4E10
495F30
B94F10
5ABF40
001220
ENDCHAR
STARTCHAR aacute
ENCODING 225
SWIDTH 572 0
DWIDTH 5 0
BBX 5 8 0 -1
BITMAP
005500
00A400
046200
7B4E10
495F30
B94F10
5ABF40
001220
ENDCHAR
STARTCHAR acircumflex
ENCODING 226
SWIDTH 572 0
DWIDTH 5 0
BBX 5 9 0 -1
BITMAP
003000
03E700
041500
046200
7B4E10
495F30
B94F10
5ABF40
001220
ENDCHAR
STARTCHAR atilde
ENCODING 227
SWIDTH 572 0
DWIDTH 5 0
BBX 5 7 0 -1
BITMAP
07DB00
057400
7B4E10
495F30
B94F10
5ABF40
001220
ENDCHAR
STARTCHAR adieresis
ENCODING 228
SWIDTH 572 0
DWIDTH 5 0
BBX 5 7 0 -1
BITMAP
053400
088500
7B4E10
495F30
B94F10
5ABF40
001220
ENDCHAR
STARTCHAR aring
ENCODING 229
SWIDTH 572 0
DWIDTH 5 0
BBX 5 7 0 -1
BITMAP
01A500
05E500
7B4E10
495F30
B94F10
5ABF40
001220
ENDCHAR
STARTCHAR ae
ENCODING 230
SWIDTH 1022 0
DWIDTH 8 0
BBX 8 6 0 -1
BITMAP
05610110
986DABC7
686FF89F
D76FF534
7ACE6982
00121000
ENDCHAR
STARTCHAR ccedilla
ENCODING 231
SWIDTH 589 0
DWIDTH 5 0
BBX 5 7 0 -3
BITMAP
19BB20
8B0A60
BA0020
5E7850
04C400
02A500
03A200
ENDCHAR
STARTCHAR egrave
ENCODING 232
SWIDTH 593 0
DWIDTH 5 0
BBX 5 8 0 -1
BITMAP
006200
009700
001200
06A600
7C2C60
ADAB80
6D5510
047300
ENDCHAR
STARTCHAR eacute
ENCODING 233
SWIDTH 593 0
DWIDTH 5 0
BBX 5 7 0 -1
BITMAP
006400
00B300
06A600
7C2C60
ADAB80
6D5510
047300
ENDCHAR
STARTCHAR ecircumflex
ENCODING 234
SWIDTH 593 0
DWIDTH 5 0
BBX 5 8 0 -1
BITMAP
003000
03E700
041500
06A600
7C2C60
ADAB80
6D5510
047300
ENDCHAR
STARTCHAR edieresis
ENCODING 235
SWIDTH 593 0
DWIDTH 5 0
BBX 5 7 0 -1
BITMAP
033600
022400
06A600
7C2C60
ADAB80
6D5510
047300
ENDCHAR
STARTCHAR igrave
ENCODING 236
SWIDTH 393 0
DWIDTH 3 0
BBX 4 7 0 0
BITMAP
0700
0C40
2420
3D90
0B70
0A60
4DB1
ENDCHAR
STARTCHAR iacute
ENCODING 237
SWIDTH 393 0
DWIDTH 3 0
BBX 4 7 0 0
BITMAP
0370
0770
2220
3D90
0B70
0A60
4DB1
ENDCHAR
STARTCHAR icircumflex
ENCODING 238
SWIDTH 393 0
DWIDTH 3 0
BBX 4 8 0 0
BITMAP
0210
1DA0
3241
2210
3D90
0B70
0A60
4DB1
ENDCHAR
STARTCHAR idieresis
ENCODING 239
SWIDTH 393 0
DWIDTH 3 0
BBX 4 6 0 0
BITMAP
1551
3650
3D90
0B70
0A60
4DB1
ENDCHAR
STARTCHAR eth
ENCODING 240
SWIDTH 672 0
DWIDTH 5 0
BBX 6 8 0 -1
BITMAP
030020
019B90
05DD30
0237D0
6D9BF4
F500E5
D702E2
29A930
ENDCHAR
STARTCHAR ntilde
ENCODING 241
SWIDTH 643 0
DWIDTH 5 0
BBX 7 6 -1 0
BITMAP
004EC200
01536100
28FCCB00
00E23E00
03E42C00
01126720
ENDCHAR
STARTCHAR ograve
ENCODING 242
SWIDTH 705 0
DWIDTH 6 0
BBX 6 7 0 0
BITMAP
004300
007A00
000200
19AA60
C901D6
C700C7
3C9B91
ENDCHAR
STARTCHAR oacute
ENCODING 243
SWIDTH 705 0
DWIDTH 6 0
BBX 6 6 0 0
BITMAP
003700
008600
19AA60
C901D6
C700C7
3C9B91
ENDCHAR
STARTCHAR ocircumflex
ENCODING 244
SWIDTH 705 0
DWIDTH 6 0
BBX 6 7 0 0
BITMAP
002100
01CB00
033320
19AA60
C901D6
C700C7
3C9B91
ENDCHAR
STARTCHAR otilde
ENCODING 245
SWIDTH 705 0
DWIDTH 6 0
BBX 6 6 0 0
BITMAP
03EC30
010300
19AA60
C901D6
C700C7
3C9B91
ENDCHAR
STARTCHAR odieresis
ENCODING 246
SWIDTH 705 0
DWIDTH 6 0
BBX 6 6 0 0
BITMAP
015510
003400
19AA60
C901D6
C700C7
3C9B91
ENDCHAR
STARTCHAR divide
ENCODING 247
SWIDTH 504 0
DWIDTH 4 0
BBX 4 5 0 0
BITMAP
0460
06A0
CCBA
4663
0AC0
ENDCHAR
STARTCHAR oslash
ENCODING 248
SWIDTH 705 0
DWIDTH 6 0
BBX 6 6 0 -1
BITMAP
000380
19AEB0
C95DD6
D8D4C7
3EEB91
0C2000
ENDCHAR
STARTCHAR ugrave
ENCODING 249
SWIDTH 614 0
DWIDTH 5 0
BBX 7 8 -1 -1
BITMAP
00260000
002E1000
00030000
2BB3A900
07A07900
07A08700
02DAD910
00013300
ENDCHAR
STARTCHAR uacute
ENCODING 250
SWIDTH 614 0
DWIDTH 5 0
BBX 7 8 -1 -1
BITMAP
00073000
000C2000
00000000
2BB3A900
07A07900
07A08700
02DAD910
00013300
ENDCHAR
STARTCHAR ucircumflex
ENCODING 251
SWIDTH 614 0
DWIDTH 5 0
BBX 7 8 -1 -1
BITMAP
00030000
004E5000
00515000
2BB3A900
07A07900
07A08700
02DAD910
00013300
ENDCHAR
STARTCHAR udieresis
ENCODING 252
SWIDTH 614 0
DWIDTH 5 0
BBX 7 7 -1 -1
BITMAP
00534000
00323000
2BB3A900
07A07900
07A08700
02DAD910
00013300
ENDCHAR
STARTCHAR yacute
ENCODING 253
SWIDTH 655 0
DWIDTH 5 0
BBX 6 11 -1 -4
BITMAP
000730
000C20
110000
0AA4BB
08D06E
0AC06E
03BCCD
00007C
05408B
0883D5
006840
ENDCHAR
STARTCHAR thorn
ENCODING 254
SWIDTH 734 0
DWIDTH 6 0
BBX 7 10 -1 -4
BITMAP
27840000
02E70000
00D70000
00CB9710
00C919B0
00B705D0
00BDAD50
00B71000
02CB2000
14432000
ENDCHAR
STARTCHAR ydieresis
ENCODING 255
SWIDTH 655 0
DWIDTH 5 0
BBX 6 10 -1 -4
BITMAP
005340
113230
0AA4BB
08D06E
0AC06E
03BCCD
00007C
05408B
0883D5
006840
ENDCHAR
STARTCHAR dotlessi
ENCODING 305
SWIDTH 393 0
DWIDTH 3 0
BBX 4 5 0 0
BITMAP
2210
3D90
0B70
0A60
4DB1
ENDCHAR
STARTCHAR Lslash
ENCODING 321
SWIDTH 713 0
DWIDTH 6 0
BBX 7 7 -1 0
BITMAP
14444100
03DD2000
00BC5000
03DF9010
09DA0070
009A03A0
16CCBA70
ENDCHAR
STARTCHAR lslash
ENCODING 322
SWIDTH 365 0
DWIDTH 3 0
BBX 5 8 -1 -1
BITMAP
39D300
02F400
01F920
2AF910
18F200
00E100
00E200
068600
ENDCHAR
STARTCHAR OE
ENCODING 338
SWIDTH 1195 0
DWIDTH 10 0
BBX 10 7 0 -1
BITMAP
0004689AB3
04767F5183
8C38EF3712
D501FFD910
9A06EF3761
07A99F88C1
0002332220
ENDCHAR
STARTCHAR oe
ENCODING 339
SWIDTH 1087 0
DWIDTH 9 0
BBX 9 5 0 -1
BITMAP
1798267300
A807FB5E40
D404FCAC80
4C9BCA4510
0010067300
ENDCHAR
STARTCHAR Scaron
ENCODING 352
SWIDTH 661 0
DWIDTH 5 0
BBX 6 9 0 -1
BITMAP
031300
03D900
027111
8C7AD0
DB5160
4CFF80
4019F2
7B7BB0
303200
ENDCHAR
STARTCHAR scaron
ENCODING 353
SWIDTH 533 0
DWIDTH 4 0
BBX 5 8 0 0
BITMAP
030300
09D300
004000
298500
B62C00
6FC700
737F30
9BAB10
ENDCHAR
STARTCHAR Ydieresis
ENCODING 376
SWIDTH 848 0
DWIDTH 7 0
BBX 8 8 -1 -1
BITMAP
00043600
11252400
38F905A6
005F4750
0007E600
0001F200
0002F400
00178840
ENDCHAR
STARTCHAR Zcaron
ENCODING 381
SWIDTH 685 0
DWIDTH 5 0
BBX 6 8 0 0
BITMAP
022210
01CC10
003200
9BBCD5
812EA0
21DC12
0CE255
7DCBC4
ENDCHAR
STARTCHAR zcaron
ENCODING 382
SWIDTH 549 0
DWIDTH 4 0
BBX 5 8 0 -1
BITMAP
040300
08E400
126220
C9BF30
62E700
1CB330
8ECC40
000210
ENDCHAR
STARTCHAR circumflex
ENCODING 710
SWIDTH 714 0
DWIDTH 6 0
BBX 4 3 1 5
BITMAP
0130
0AD1
1423
ENDCHAR
STARTCHAR caron
ENCODING 711
SWIDTH 714 0
DWIDTH 6 0
BBX 4 3 1 5
BITMAP
1313
0BD2
0140
ENDCHAR
STARTCHAR breve
ENCODING 728
SWIDTH 715 0
DWIDTH 6 0
BBX 3 2 2 6
BITMAP
3130
AD20
ENDCHAR
STARTCHAR dotaccent
ENCODING 729
SWIDTH 708 0
DWIDTH 6 0
BBX 2 2 2 6
BITMAP
42
31
ENDCHAR
STARTCHAR ring
ENCODING 730
SWIDTH 704 0
DWIDTH 6 0
BBX 2 3 2 5
BITMAP
24
9B
12
ENDCHAR
STARTCHAR ogonek
ENCODING 731
SWIDTH 988 0
DWIDTH 8 0
BBX 4 2 2 -1
BITMAP
5700
4DA2
ENDCHAR
STARTCHAR tilde
ENCODING 732
SWIDTH 707 0
DWIDTH 6 0
BBX 4 2 1 5
BITMAP
1EC5
0131
ENDCHAR
STARTCHAR hungarumlaut
ENCODING 733
SWIDTH 671 0
DWIDTH 5 0
BBX 4 2 1 6
BITMAP
0982
4AD1
ENDCHAR
STARTCHAR endash
ENCODING 8211
SWIDTH 576 0
DWIDTH 5 0
BBX 5 2 0 2
BITMAP
488910
489910
ENDCHAR
STARTCHAR emdash
ENCODING 8212
SWIDTH 993 0
DWIDTH 8 0
BBX 8 2 0 2
BITMAP
37777783
599AAAA5
ENDCHAR
STARTCHAR quoteleft
ENCODING 8216
SWIDTH 261 0
DWIDTH 2 0
BBX 2 3 0 3
BITMAP
29
9B
44
ENDCHAR
STARTCHAR quoteright
ENCODING 8217
SWIDTH 301 0
DWIDTH 2 0
BBX 3 3 0 3
BITMAP
2810
8C00
4300
ENDCHAR
STARTCHAR quotesinglbase
ENCODING 8218
SWIDTH 332 0
DWIDTH 3 0
BBX 3 3 0 -1
BITMAP
2810
8C00
4300
ENDCHAR
STARTCHAR quotedblleft
ENCODING 8220
SWIDTH 477 0
DWIDTH 4 0
BBX 4 3 0 3
BITMAP
2956
9BD7
4462
ENDCHAR
STARTCHAR quotedblright
ENCODING 8221
SWIDTH 477 0
DWIDTH 4 0
BBX 4 3 0 3
BITMAP
4774
A9E5
6260
ENDCHAR
STARTCHAR quotedblbase
ENCODING 8222
SWIDTH 477 0
DWIDTH 4 0
BBX 4 3 0 -1
BITMAP
4774
A9E5
6260
ENDCHAR
STARTCHAR dagger
ENCODING 8224
SWIDTH 487 0
DWIDTH 4 0
BBX 4 10 0 -3
BITMAP
0670
09A0
9DD7
6BB4
0890
0890
0880
0780
0780
0230
ENDCHAR
STARTCHAR daggerdbl
ENCODING 8225
SWIDTH 497 0
DWIDTH 4 0
BBX 4 10 0 -3
BITMAP
0670
09A0
9DD7
6BC4
8DE9
4AB5
0890
0780
0780
0230
ENDCHAR
STARTCHAR bullet
ENCODING 8226
SWIDTH 275 0
DWIDTH 2 0
BBX 3 3 0 2
BITMAP
0100
DE10
CE10
ENDCHAR
STARTCHAR ellipsis
ENCODING 8230
SWIDTH 787 0
DWIDTH 6 0
BBX 7 2 0 -1
BITMAP
75583910
86593A10
ENDCHAR
STARTCHAR perthousand
ENCODING 8240
SWIDTH 888 0
DWIDTH 7 0
BBX 8 8 0 -1
BITMAP
00010000
9B2C5000
CA8D0000
23970000
01E11010
069CCCB4
0C3BBCB4
03000000
ENDCHAR
STARTCHAR guilsinglleft
ENCODING 8249
SWIDTH 234 0
DWIDTH 2 0
BBX 2 4 0 0
BITMAP
07
96
B5
19
ENDCHAR
STARTCHAR guilsinglright
ENCODING 8250
SWIDTH 223 0
DWIDTH 2 0
BBX 2 4 0 0
BITMAP
80
87
69
A1
ENDCHAR
STARTCHAR fraction
ENCODING 8260
SWIDTH 600 0
DWIDTH 5 0
BBX 6 8 -1 -1
BITMAP
000044
0000CC
0006F3
001E80
009D10
03F500
0BA000
1C2000
ENDCHAR
STARTCHAR Euro
ENCODING 8364
SWIDTH 590 0
DWIDTH 5 0
BBX 6 6 -1 0
BITMAP
000320
00A9B6
29E656
2CEA31
14FA66
003971
ENDCHAR
STARTCHAR trademark
ENCODING 8482
SWIDTH 624 0
DWIDTH 5 0
BBX 5 4 0 2
BITMAP
610000
B55430
818870
433430
ENDCHAR
STARTCHAR minus
ENCODING 8722
SWIDTH 549 0
DWIDTH 4 0
BBX 5 2 0 2
BITMAP
666510
CDDC30
ENDCHAR
STARTCHAR fi
ENCODING 64257
SWIDTH 757 0
DWIDTH 6 0
BBX 8 12 -1 -4
BITMAP
0007A500
00881E40
00C51F60
00D61210
09EDAE70
00990C60
008B0B50
006D5EA1
004E0000
493E0000
2CB70000
01200000
ENDCHAR
STARTCHAR fl
ENCODING 64258
SWIDTH 776 0
DWIDTH 6 0
BBX 8 12 -1 -4
BITMAP
0007A500
00881E40
00C50C80
00D60B80
09ED8B80
00990A80
008B0970
006D0970
004E3882
493E0000
2CB70000
01200000
ENDCHAR
STARTCHAR .notdef
ENCODING -1
SWIDTH 320 0
DWIDTH 3 0
BBX 1 1 0 0
BITMAP
00
ENDCHAR
ENDFONT
